<svg xmlns="http://www.w3.org/2000/svg" viewBox="0 0 500 500"><g id="freepik--light-bulb--inject-62"><g id="freepik--Bulb--inject-62"><g id="freepik--Socket--inject-62"><ellipse cx="263" cy="302.71" rx="16.24" ry="9.38" transform="translate(-0.79 0.69) rotate(-0.15)" style="fill:#263238"></ellipse><path d="M278.35,305.74h-2.63a8.06,8.06,0,0,0-3.39-3.34c-5.16-3-13.52-2.94-18.67,0a8,8,0,0,0-3.37,3.36h-2.63l3,4.78h0a8.62,8.62,0,0,0,3,2.64c5.16,3,13.52,2.95,18.67,0a8.89,8.89,0,0,0,3-2.66h0Z" style="fill:#263238"></path><ellipse cx="263" cy="295.31" rx="24.01" ry="13.86" style="fill:#455a64"></ellipse><ellipse cx="263" cy="291.77" rx="24.91" ry="14.38" style="fill:#37474f"></ellipse><ellipse cx="263" cy="287.97" rx="25.54" ry="14.74" style="fill:#455a64"></ellipse><ellipse cx="263" cy="284.17" rx="26.17" ry="15.11" style="fill:#37474f"></ellipse><ellipse cx="263" cy="280.37" rx="26.8" ry="15.47" style="fill:#455a64"></ellipse><ellipse cx="263" cy="276.57" rx="27.43" ry="15.83" style="fill:#37474f"></ellipse></g><path d="M291.69,262.4c0-4.24-2.81-8.47-8.41-11.7-11.21-6.48-29.38-6.48-40.59,0-5.6,3.23-8.4,7.47-8.4,11.71v9.76c0,4.24,2.81,8.48,8.42,11.71,11.22,6.46,29.39,6.46,40.59,0,5.6-3.24,8.4-7.48,8.39-11.72C291.69,270.52,291.7,264.05,291.69,262.4Z" style="fill:#6C63FF"></path><path d="M263,66.47a86.31,86.31,0,0,0-86.31,86.31c0,68.53,56.53,79.9,56.53,107.52,0,4.4,2.91,8.8,8.72,12.16,11.63,6.71,30.49,6.71,42.12,0,5.81-3.36,8.72-7.76,8.72-12.16h0c0-27.62,56.54-39,56.54-107.52A86.32,86.32,0,0,0,263,66.47Z" style="fill:#6C63FF"></path><path d="M263,66.47a86.31,86.31,0,0,0-86.31,86.31c0,68.53,56.53,79.9,56.53,107.52,0,4.4,2.91,8.8,8.72,12.16,11.63,6.71,30.49,6.71,42.12,0,5.81-3.36,8.72-7.76,8.72-12.16h0c0-27.62,56.54-39,56.54-107.52A86.32,86.32,0,0,0,263,66.47Z" style="fill:#fff;opacity:0.7000000000000001;mix-blend-mode:screen"></path><ellipse cx="263" cy="260.45" rx="24.91" ry="14.38" style="fill:#6C63FF;opacity:0.25"></ellipse><path d="M284.81,267.41a18.72,18.72,0,0,1-4.2,3.22c-9.73,5.61-25.5,5.61-35.22,0a18.72,18.72,0,0,1-4.2-3.22,18.43,18.43,0,0,1,4.2-3.22c9.73-5.62,25.5-5.62,35.22,0A18.21,18.21,0,0,1,284.81,267.41Z" style="fill:#6C63FF;opacity:0.25"></path><path d="M284.81,267.41a18.72,18.72,0,0,1-4.2,3.22c-9.73,5.61-25.5,5.61-35.22,0a18.72,18.72,0,0,1-4.2-3.22,18.43,18.43,0,0,1,4.2-3.22c9.73-5.62,25.5-5.62,35.22,0A18.21,18.21,0,0,1,284.81,267.41Z" style="fill:#6C63FF;opacity:0.25"></path><path d="M306.92,101.31a13.75,13.75,0,0,0-3,1.8c-3.43,2.69-4.82,7.45-4.19,11.77,1.22,8.35,9.26,13.55,13.91,20a74.09,74.09,0,0,1,11.25,23.54c.69,2.51,1.59,6.68,2.88,8.95a6.75,6.75,0,0,0,8.59,2.89c3.35-1.78,5.09-6,5.56-9.27,2.8-19.53-1.19-34.14-11-49.17C325.49,103.67,317,97,306.92,101.31Z" style="fill:#fff;opacity:0.2"></path><circle cx="262.99" cy="136.39" r="61.56" style="fill:#fff;opacity:0.2"></circle><path d="M325.52,180.82a9.49,9.49,0,0,0,.9,7.73,5.55,5.55,0,0,0,7.58,1.73,8.94,8.94,0,0,0,4.1-7.48c-.05-3.16-2.1-6.54-5.61-6.88C329.22,175.59,326.4,178.17,325.52,180.82Z" style="fill:#fff;opacity:0.2"></path><path d="M245.72,251.57c-1.92-10.94-4.9-16.81-18.37-23.71s-36.78-17.4-46.56-45.55c13,43.18,52.43,54.92,52.43,78,0,4.4,2.91,8.8,8.72,12.16a35.14,35.14,0,0,0,8,3.28Z" style="fill:#6C63FF;opacity:0.15"></path><path d="M280.28,251.57c1.92-10.94,4.9-16.81,18.38-23.71s36.77-17.4,46.56-45.55c-13,43.18-52.44,54.92-52.44,78,0,4.4-2.91,8.8-8.72,12.16a35.24,35.24,0,0,1-8,3.28C277.26,268.82,279.09,258.37,280.28,251.57Z" style="fill:#6C63FF;opacity:0.15"></path><path d="M273.08,269.07h-1c0-30.72,1.79-50,6-64.37a60,60,0,0,1,4.21-10.78A53.15,53.15,0,0,1,263,182.55a53.15,53.15,0,0,1-19.28,11.37,60,60,0,0,1,4.21,10.78c4.2,14.4,6,33.65,6,64.37h-1c0-30.62-1.78-49.79-5.95-64.09a58.38,58.38,0,0,0-4.25-10.77,26.43,26.43,0,0,1-2.86.64c-10,1.68-15.89-1.22-18-4.49A6.53,6.53,0,0,1,222,183a6.64,6.64,0,0,1,6.86-2.7c4.36.66,9.84,4.44,14.37,12.77a51.82,51.82,0,0,0,19-11.16,22.38,22.38,0,0,1-2.86-3.41c-4.71-7.15-4.43-13.32-2.6-16.72a6.92,6.92,0,0,1,12.34,0c1.83,3.4,2.11,9.57-2.6,16.72a22.38,22.38,0,0,1-2.86,3.41,51.82,51.82,0,0,0,19,11.16c4.53-8.33,10-12.11,14.37-12.77A6.63,6.63,0,0,1,304,183a6.53,6.53,0,0,1,.18,7.41c-2.13,3.27-8,6.17-18,4.49a26.08,26.08,0,0,1-2.87-.64A58.38,58.38,0,0,0,279,205C274.85,219.28,273.08,238.45,273.08,269.07Zm10.68-75.76c.86.23,1.71.42,2.54.56,9.57,1.59,15.05-1.05,17-4.05a5.5,5.5,0,0,0-.18-6.32,5.67,5.67,0,0,0-5.87-2.26C293.36,181.83,288.14,185.41,283.76,193.31Zm-56.23-12.16a5.36,5.36,0,0,0-4.68,2.35,5.5,5.5,0,0,0-.18,6.32c2,3,7.46,5.64,17,4.05.83-.14,1.68-.33,2.55-.56-4.39-7.9-9.61-11.48-13.5-12.07A8.28,8.28,0,0,0,227.53,181.15ZM263,158.94a5.85,5.85,0,0,0-5.29,3.26c-2.12,4-1.12,10.11,2.56,15.7a21.57,21.57,0,0,0,2.73,3.27,21.82,21.82,0,0,0,2.74-3.28c3.67-5.58,4.68-11.73,2.55-15.69A5.84,5.84,0,0,0,263,158.94Z" style="fill:#455a64"></path></g></g><g id="freepik--Sparkles--inject-62"><g id="freepik--Shine--inject-62"><g id="freepik--shine--inject-62" style="opacity:0.2"><path d="M262.82,60a.5.5,0,0,1-.5-.5V11.88a.5.5,0,1,1,1,0V59.49A.5.5,0,0,1,262.82,60Z" style="fill:#6C63FF"></path><path d="M238.23,63.29a.5.5,0,0,1-.48-.37l-9.59-35.79a.5.5,0,1,1,1-.26l9.59,35.79a.5.5,0,0,1-.35.61Z" style="fill:#6C63FF"></path><path d="M215.33,72.84a.5.5,0,0,1-.43-.25L200,46.84a.5.5,0,0,1,.86-.5l14.87,25.75a.49.49,0,0,1-.18.68A.47.47,0,0,1,215.33,72.84Z" style="fill:#6C63FF"></path><path d="M195.68,88a.49.49,0,0,1-.35-.15l-31.05-31a.5.5,0,0,1,0-.71.5.5,0,0,1,.7,0L196,87.14a.5.5,0,0,1,0,.71A.47.47,0,0,1,195.68,88Z" style="fill:#6C63FF"></path><path d="M180.62,107.72a.42.42,0,0,1-.24-.07L136.1,82.09a.5.5,0,0,1,.5-.87l44.28,25.57a.5.5,0,0,1-.26.93Z" style="fill:#6C63FF"></path><path d="M171.19,130.67l-.13,0-18.59-5a.5.5,0,0,1,.26-1l18.59,5a.51.51,0,0,1,.35.62A.5.5,0,0,1,171.19,130.67Z" style="fill:#6C63FF"></path><path d="M126.93,156.62a.5.5,0,0,1,0-1L168,154.27a.5.5,0,0,1,0,1l-41.09,1.35Z" style="fill:#6C63FF"></path><path d="M160.34,182.81a.49.49,0,0,1-.48-.37.5.5,0,0,1,.35-.62l11-2.94a.5.5,0,0,1,.26,1l-11,2.94Z" style="fill:#6C63FF"></path><path d="M140.06,226.32a.48.48,0,0,1-.43-.25.5.5,0,0,1,.18-.68l40.8-23.56a.5.5,0,1,1,.5.87l-40.8,23.56A.54.54,0,0,1,140.06,226.32Z" style="fill:#6C63FF"></path><path d="M164.86,253.57a.47.47,0,0,1-.35-.15.48.48,0,0,1,0-.7l31.15-31.16a.51.51,0,0,1,.71,0,.5.5,0,0,1,0,.71l-31.16,31.15A.47.47,0,0,1,164.86,253.57Z" style="fill:#6C63FF"></path><path d="M200.21,264.37a.45.45,0,0,1-.25-.07.49.49,0,0,1-.18-.68l15.53-26.9a.5.5,0,1,1,.86.5l-15.53,26.9A.5.5,0,0,1,200.21,264.37Z" style="fill:#6C63FF"></path><path d="M319.85,252.93a.5.5,0,0,1-.43-.25L310.36,237a.5.5,0,1,1,.86-.5l9.06,15.7a.5.5,0,0,1-.18.68A.59.59,0,0,1,319.85,252.93Z" style="fill:#6C63FF"></path><path d="M349.27,240.92a.5.5,0,0,1-.35-.15l-18.84-18.84a.5.5,0,1,1,.71-.71l18.84,18.84a.51.51,0,0,1,0,.71A.51.51,0,0,1,349.27,240.92Z" style="fill:#6C63FF"></path><path d="M387.36,226.53a.47.47,0,0,1-.25-.07l-41.87-24.17a.5.5,0,0,1-.18-.68.51.51,0,0,1,.68-.19l41.87,24.18a.5.5,0,0,1-.25.93Z" style="fill:#6C63FF"></path><path d="M374,184.52h-.13l-19.1-5.12a.5.5,0,0,1,.26-1l19.1,5.12a.5.5,0,0,1,.35.61A.49.49,0,0,1,374,184.52Z" style="fill:#6C63FF"></path><path d="M388.92,154.8H358.11a.5.5,0,0,1,0-1h30.81a.5.5,0,0,1,0,1Z" style="fill:#6C63FF"></path><path d="M354.81,130.21a.5.5,0,0,1-.13-1l43.24-11.58a.5.5,0,1,1,.25,1l-43.23,11.59Z" style="fill:#6C63FF"></path><path d="M345.25,107.31a.5.5,0,0,1-.43-.25.51.51,0,0,1,.18-.69l47.17-27.23a.5.5,0,0,1,.5.87L345.5,107.24A.45.45,0,0,1,345.25,107.31Z" style="fill:#6C63FF"></path><path d="M330.1,87.66a.47.47,0,0,1-.35-.15.48.48,0,0,1,0-.7l16.64-16.65a.5.5,0,0,1,.71.71L330.45,87.51A.47.47,0,0,1,330.1,87.66Z" style="fill:#6C63FF"></path><path d="M310.38,72.6a.54.54,0,0,1-.25-.06.52.52,0,0,1-.19-.69l14.75-25.54a.52.52,0,0,1,.69-.19.51.51,0,0,1,.18.69L310.81,72.35A.5.5,0,0,1,310.38,72.6Z" style="fill:#6C63FF"></path><path d="M287.43,63.17l-.13,0a.5.5,0,0,1-.35-.61l9.41-35.15a.5.5,0,1,1,1,.26L287.91,62.8A.5.5,0,0,1,287.43,63.17Z" style="fill:#6C63FF"></path><path d="M259.06,60.07a.5.5,0,0,1-.5-.48l-1.17-29.5a.49.49,0,0,1,.48-.51h0a.5.5,0,0,1,.5.48l1.17,29.5a.5.5,0,0,1-.48.52Z" style="fill:#6C63FF"></path><path d="M234.62,64.34a.49.49,0,0,1-.48-.35l-7.08-22.77a.5.5,0,0,1,1-.3l7.07,22.78a.49.49,0,0,1-.32.62A.39.39,0,0,1,234.62,64.34Z" style="fill:#6C63FF"></path><path d="M212.11,74.79a.51.51,0,0,1-.42-.23l-21-33.22a.51.51,0,0,1,.16-.69.49.49,0,0,1,.69.16l21,33.22a.51.51,0,0,1-.16.69A.52.52,0,0,1,212.11,74.79Z" style="fill:#6C63FF"></path><path d="M193.08,90.71a.5.5,0,0,1-.34-.13L173.12,72.45a.5.5,0,1,1,.67-.73l19.63,18.13a.49.49,0,0,1,0,.7A.5.5,0,0,1,193.08,90.71Z" style="fill:#6C63FF"></path><path d="M178.82,111a.53.53,0,0,1-.24-.06l-16.11-8.47a.51.51,0,0,1-.21-.68.52.52,0,0,1,.68-.21l16.11,8.48a.5.5,0,0,1-.23.94Z" style="fill:#6C63FF"></path><path d="M170.3,134.32h-.12L118.36,122.6a.5.5,0,0,1,.22-1l51.83,11.71a.5.5,0,0,1-.11,1Z" style="fill:#6C63FF"></path><path d="M142.94,160a.5.5,0,0,1,0-1l25.14-1a.48.48,0,0,1,.52.48.51.51,0,0,1-.48.52L143,160Z" style="fill:#6C63FF"></path><path d="M138.43,194a.5.5,0,0,1-.48-.35.5.5,0,0,1,.33-.63l33.94-10.55a.5.5,0,0,1,.62.33.51.51,0,0,1-.33.63L138.57,194Z" style="fill:#6C63FF"></path><path d="M139.12,233.57a.5.5,0,0,1-.26-.92l43.69-27.59a.5.5,0,1,1,.53.85l-43.69,27.58A.45.45,0,0,1,139.12,233.57Z" style="fill:#6C63FF"></path><path d="M186.87,237.87a.48.48,0,0,1-.34-.14.48.48,0,0,1,0-.7l11.87-12.85a.5.5,0,1,1,.73.67L187.23,237.7A.49.49,0,0,1,186.87,237.87Z" style="fill:#6C63FF"></path><path d="M329.64,260a.51.51,0,0,1-.43-.23l-15.63-24.76a.49.49,0,0,1,.16-.69.5.5,0,0,1,.69.15l15.63,24.76a.51.51,0,0,1-.42.77Z" style="fill:#6C63FF"></path><path d="M367.93,251.6a.51.51,0,0,1-.34-.14L332.7,219.23a.5.5,0,0,1,0-.71.5.5,0,0,1,.71,0l34.89,32.24a.5.5,0,0,1,0,.71A.52.52,0,0,1,367.93,251.6Z" style="fill:#6C63FF"></path><path d="M360,205.74a.46.46,0,0,1-.23-.06L347.07,199a.5.5,0,0,1-.21-.68.51.51,0,0,1,.67-.21l12.71,6.69a.49.49,0,0,1,.21.67A.5.5,0,0,1,360,205.74Z" style="fill:#6C63FF"></path><path d="M393,184.15h-.11l-37.16-8.4a.5.5,0,1,1,.22-1l37.16,8.4a.5.5,0,0,1-.11,1Z" style="fill:#6C63FF"></path><path d="M358,151a.5.5,0,0,1,0-1l44.31-1.76a.48.48,0,0,1,.52.48.5.5,0,0,1-.49.52L358,151Z" style="fill:#6C63FF"></path><path d="M353.75,126.6a.51.51,0,0,1-.48-.36.5.5,0,0,1,.33-.62L368.34,121a.49.49,0,0,1,.63.32.5.5,0,0,1-.33.63l-14.74,4.58A.4.4,0,0,1,353.75,126.6Z" style="fill:#6C63FF"></path><path d="M343.3,104.09a.49.49,0,0,1-.42-.23.5.5,0,0,1,.15-.69l30.21-19.08a.51.51,0,0,1,.69.16.5.5,0,0,1-.15.69L343.57,104A.45.45,0,0,1,343.3,104.09Z" style="fill:#6C63FF"></path><path d="M327.38,85.06a.5.5,0,0,1-.34-.13.51.51,0,0,1,0-.71l31.51-34.11a.5.5,0,0,1,.71,0,.49.49,0,0,1,0,.7L327.75,84.9A.52.52,0,0,1,327.38,85.06Z" style="fill:#6C63FF"></path><path d="M307.08,70.8a.53.53,0,0,1-.24-.06.52.52,0,0,1-.21-.68l23-43.79a.5.5,0,1,1,.88.47l-23,43.79A.5.5,0,0,1,307.08,70.8Z" style="fill:#6C63FF"></path><path d="M283.77,62.27h-.11a.5.5,0,0,1-.37-.6l2.55-11.32a.5.5,0,0,1,1,.22l-2.56,11.32A.49.49,0,0,1,283.77,62.27Z" style="fill:#6C63FF"></path><path d="M272.72,60.48h-.05a.5.5,0,0,1-.44-.55l4.26-40.75a.5.5,0,0,1,.55-.44.5.5,0,0,1,.45.55L273.22,60A.5.5,0,0,1,272.72,60.48Z" style="fill:#6C63FF"></path><path d="M247.92,61.2a.49.49,0,0,1-.49-.42l-7.5-47.2a.51.51,0,0,1,.42-.57.49.49,0,0,1,.57.41l7.49,47.2a.5.5,0,0,1-.41.58Z" style="fill:#6C63FF"></path><path d="M224.15,68.32a.51.51,0,0,1-.46-.3L206.41,29.23a.5.5,0,1,1,.91-.4l17.29,38.78a.49.49,0,0,1-.26.66A.46.46,0,0,1,224.15,68.32Z" style="fill:#6C63FF"></path><path d="M203,81.34a.51.51,0,0,1-.39-.18L181.19,54.69a.51.51,0,0,1,.08-.71.5.5,0,0,1,.7.08l21.45,26.47a.5.5,0,0,1-.07.7A.5.5,0,0,1,203,81.34Z" style="fill:#6C63FF"></path><path d="M186,99.39a.46.46,0,0,1-.29-.1l-35.84-26a.5.5,0,1,1,.59-.81l35.84,26a.51.51,0,0,1,.11.7A.49.49,0,0,1,186,99.39Z" style="fill:#6C63FF"></path><path d="M174.23,121.23a.57.57,0,0,1-.18,0l-35.24-13.51a.51.51,0,0,1-.28-.65.49.49,0,0,1,.64-.29l35.24,13.51a.51.51,0,0,1,.28.65A.48.48,0,0,1,174.23,121.23Z" style="fill:#6C63FF"></path><path d="M168.5,145.37h-.05L126.88,141a.5.5,0,0,1-.45-.55A.5.5,0,0,1,127,140l41.58,4.36a.49.49,0,0,1,.44.54A.5.5,0,0,1,168.5,145.37Z" style="fill:#6C63FF"></path><path d="M118.47,178.23a.5.5,0,0,1-.08-1l50.75-8.06a.5.5,0,0,1,.58.42.51.51,0,0,1-.42.57l-50.75,8.06Z" style="fill:#6C63FF"></path><path d="M145,207.9a.5.5,0,0,1-.2-1l31.31-14a.5.5,0,1,1,.41.91l-31.31,14A.52.52,0,0,1,145,207.9Z" style="fill:#6C63FF"></path><path d="M163.25,236.23a.51.51,0,0,1-.39-.19.5.5,0,0,1,.08-.7l26.11-21.16a.5.5,0,0,1,.63.77l-26.12,21.16A.47.47,0,0,1,163.25,236.23Z" style="fill:#6C63FF"></path><path d="M175.67,275.81a.46.46,0,0,1-.29-.1.51.51,0,0,1-.11-.7L207,231.3a.49.49,0,0,1,.69-.11.5.5,0,0,1,.12.7L176.08,275.6A.49.49,0,0,1,175.67,275.81Z" style="fill:#6C63FF"></path><path d="M349.78,261.67a.5.5,0,0,1-.39-.18L322.7,228.55a.51.51,0,0,1,.07-.71.5.5,0,0,1,.7.08l26.7,32.94a.5.5,0,0,1-.08.7A.51.51,0,0,1,349.78,261.67Z" style="fill:#6C63FF"></path><path d="M370.59,232.81a.47.47,0,0,1-.3-.1l-30.47-22.12a.5.5,0,1,1,.59-.81l30.47,22.12a.51.51,0,0,1,.11.7A.49.49,0,0,1,370.59,232.81Z" style="fill:#6C63FF"></path><path d="M381.87,200.34a.57.57,0,0,1-.18,0l-30-11.5a.5.5,0,1,1,.36-.93l30,11.49a.5.5,0,0,1-.18,1Z" style="fill:#6C63FF"></path><path d="M370.59,166.06h0l-13-1.36a.5.5,0,0,1-.44-.55.5.5,0,0,1,.55-.45l13,1.36a.5.5,0,0,1,.44.55A.49.49,0,0,1,370.59,166.06Z" style="fill:#6C63FF"></path><path d="M356.89,139.9a.5.5,0,0,1-.49-.42.5.5,0,0,1,.42-.57l26.67-4.24a.5.5,0,0,1,.16,1L357,139.89Z" style="fill:#6C63FF"></path><path d="M349.78,116.13a.5.5,0,0,1-.2-1L372.47,105a.5.5,0,0,1,.41.91L350,116.09A.45.45,0,0,1,349.78,116.13Z" style="fill:#6C63FF"></path><path d="M336.75,95a.5.5,0,0,1-.31-.89l20.86-16.9a.49.49,0,0,1,.7.07.49.49,0,0,1-.07.7L337.07,94.9A.54.54,0,0,1,336.75,95Z" style="fill:#6C63FF"></path><path d="M318.71,78a.53.53,0,0,1-.3-.09.51.51,0,0,1-.11-.7L325,68a.51.51,0,0,1,.7-.11.5.5,0,0,1,.11.7l-6.69,9.22A.51.51,0,0,1,318.71,78Z" style="fill:#6C63FF"></path><path d="M296.87,66.2a.57.57,0,0,1-.18,0,.5.5,0,0,1-.29-.64l12.14-31.67a.5.5,0,1,1,.94.36L297.33,65.88A.48.48,0,0,1,296.87,66.2Z" style="fill:#6C63FF"></path></g><g id="freepik--shine--inject-62"><path d="M172.14,208.83l0,0a.62.62,0,0,1-.82-.16l-.35-.49h0a3.11,3.11,0,0,0-4-.94l-.53.27a.61.61,0,0,1-.65-1l.49-.35a3.11,3.11,0,0,0,.94-4l-.27-.53a.63.63,0,0,1,.22-.81.61.61,0,0,1,.82.16l.35.49a3.12,3.12,0,0,0,4,.94l.53-.27a.61.61,0,0,1,.65,1l-.49.35a3.11,3.11,0,0,0-.94,4l.27.53A.6.6,0,0,1,172.14,208.83Zm-3.84-3.15a4.2,4.2,0,0,1,2.19.52A4.4,4.4,0,0,1,171,204a4.4,4.4,0,0,1-2.19-.52A4.4,4.4,0,0,1,168.3,205.68Z" style="fill:#6C63FF"></path><path d="M197.47,241.46a3.94,3.94,0,1,1,1.75-3.14A4,4,0,0,1,197.47,241.46Zm-3.7-5.53a2.88,2.88,0,0,0-.34.27,2.71,2.71,0,0,0,1.75,4.69,2.71,2.71,0,1,0,.19-5.42A2.67,2.67,0,0,0,193.77,235.93Z" style="fill:#6C63FF"></path><path d="M175.07,234.82h0l-1.59,1.29a.62.62,0,0,1-.78-1l1.6-1.29a.61.61,0,0,1,.78.95Z" style="fill:#6C63FF"></path><path d="M178.08,236.6h0a.6.6,0,0,1-.86-.09l-1.29-1.59a.65.65,0,0,1,.09-.87.62.62,0,0,1,.87.1l1.29,1.59A.62.62,0,0,1,178.08,236.6Z" style="fill:#6C63FF"></path><path d="M178.66,231.91h0l-1.6,1.29a.62.62,0,0,1-.86-.09.63.63,0,0,1,.09-.87l1.59-1.29a.62.62,0,0,1,.87.1A.6.6,0,0,1,178.66,231.91Z" style="fill:#6C63FF"></path><path d="M175.18,233h0a.63.63,0,0,1-.87-.09l-1.29-1.6a.6.6,0,0,1,.1-.86.62.62,0,0,1,.86.09l1.29,1.6A.61.61,0,0,1,175.18,233Z" style="fill:#6C63FF"></path></g><g id="freepik--shine--inject-62"><path d="M364.56,182.28h0a.62.62,0,0,1,.28.79l-.23.55h0a3.13,3.13,0,0,0,1.25,3.88l.51.31a.61.61,0,0,1-.56,1.09l-.55-.23a3.1,3.1,0,0,0-3.87,1.25l-.31.51a.63.63,0,0,1-.81.22.62.62,0,0,1-.29-.78l.23-.55a3.1,3.1,0,0,0-1.24-3.88l-.51-.31a.61.61,0,0,1,.56-1.09l.55.23a3.1,3.1,0,0,0,3.87-1.25l.31-.51A.62.62,0,0,1,364.56,182.28Zm-.71,4.92a4.27,4.27,0,0,1-.69-2.14,4.21,4.21,0,0,1-2.14.69,4.41,4.41,0,0,1,.69,2.15A4.32,4.32,0,0,1,363.85,187.2Z" style="fill:#6C63FF"></path><path d="M369.7,140.69a3.94,3.94,0,1,1-3.59.13A4,4,0,0,1,369.7,140.69Zm-2.81,6a2.86,2.86,0,0,0,.41.15,2.69,2.69,0,0,0,2.06-.24,2.76,2.76,0,0,0,1.29-1.63,2.71,2.71,0,1,0-5,.59A2.72,2.72,0,0,0,366.89,146.72Z" style="fill:#6C63FF"></path><path d="M379.17,164.8h0l1.85.9a.61.61,0,0,1,.28.82.62.62,0,0,1-.82.28l-1.84-.9a.61.61,0,0,1-.29-.82A.62.62,0,0,1,379.17,164.8Z" style="fill:#6C63FF"></path><path d="M379.51,161.32h0a.63.63,0,0,1,.28.83l-.9,1.84a.61.61,0,1,1-1.1-.54l.9-1.84A.61.61,0,0,1,379.51,161.32Z" style="fill:#6C63FF"></path><path d="M375,162.78h0l1.84.9a.61.61,0,0,1,.28.82.63.63,0,0,1-.82.29l-1.84-.9a.62.62,0,0,1,.53-1.11Z" style="fill:#6C63FF"></path><path d="M377.48,165.48h0a.62.62,0,0,1,.29.82l-.9,1.85a.62.62,0,0,1-1.11-.54l.9-1.84A.61.61,0,0,1,377.48,165.48Z" style="fill:#6C63FF"></path></g><g id="freepik--shine--inject-62"><path d="M172.94,91.13h0a.61.61,0,0,1,.49.67l-.07.6h0a3.11,3.11,0,0,0,2.27,3.38l.58.16a.61.61,0,0,1-.24,1.2l-.59-.07A3.12,3.12,0,0,0,172,99.34l-.16.57a.61.61,0,0,1-1.2-.23l.07-.59a3.11,3.11,0,0,0-2.27-3.39l-.57-.16a.61.61,0,0,1-.44-.71.62.62,0,0,1,.68-.49l.59.07a3.1,3.1,0,0,0,3.38-2.27l.16-.57A.62.62,0,0,1,172.94,91.13Zm.67,4.92a4.42,4.42,0,0,1-1.25-1.87,4.24,4.24,0,0,1-1.87,1.25,4.41,4.41,0,0,1,1.26,1.87A4.38,4.38,0,0,1,173.61,96.05Z" style="fill:#6C63FF"></path><path d="M186.4,64.37A3.94,3.94,0,1,1,183,65.49,3.94,3.94,0,0,1,186.4,64.37Zm-1,6.57a2.12,2.12,0,0,0,.44,0,2.73,2.73,0,0,0,2.7-2.73,2.71,2.71,0,1,0-4.62,1.94A2.6,2.6,0,0,0,185.36,70.94Z" style="fill:#6C63FF"></path><path d="M216.93,61.11h0l2,.35a.62.62,0,0,1,.49.72.6.6,0,0,1-.71.49l-2-.35a.62.62,0,0,1-.5-.71A.61.61,0,0,1,216.93,61.11Z" style="fill:#6C63FF"></path><path d="M216.3,57.67h0a.63.63,0,0,1,.5.71l-.36,2a.64.64,0,0,1-.71.5.61.61,0,0,1-.5-.71l.36-2A.6.6,0,0,1,216.3,57.67Z" style="fill:#6C63FF"></path><path d="M212.38,60.3h0l2,.35a.61.61,0,0,1,.5.71.62.62,0,0,1-.71.5l-2-.35a.62.62,0,0,1-.5-.72A.62.62,0,0,1,212.38,60.3Z" style="fill:#6C63FF"></path><path d="M215.49,62.22h0a.61.61,0,0,1,.49.71l-.35,2a.6.6,0,0,1-.71.5.61.61,0,0,1-.5-.71l.35-2A.62.62,0,0,1,215.49,62.22Z" style="fill:#6C63FF"></path></g></g></g></svg>